<?xml version="1.0" standalone="no"?>
<!DOCTYPE svg PUBLIC "-//W3C//DTD SVG 20010904//EN"
 "http://www.w3.org/TR/2001/REC-SVG-20010904/DTD/svg10.dtd">
<svg version="1.0" xmlns="http://www.w3.org/2000/svg"
 width="256.000000pt" height="256.000000pt" viewBox="0 0 256.000000 256.000000"
 preserveAspectRatio="xMidYMid meet">

<g transform="translate(0.000000,256.000000) scale(0.100000,-0.100000)"
fill="#000000" stroke="none">
<path d="M1073 2436 c-152 -29 -330 -103 -458 -189 -78 -53 -214 -185 -276
-267 -61 -81 -138 -230 -173 -335 -76 -229 -75 -506 2 -735 60 -175 139 -306
266 -438 139 -145 288 -240 474 -303 231 -79 508 -80 737 -3 172 57 312 142
443 268 145 139 240 288 303 474 78 231 80 508 3 737 -35 105 -112 254 -173
335 -63 84 -199 214 -280 269 -94 64 -253 136 -366 167 -85 22 -125 27 -265
30 -112 2 -188 -1 -237 -10z m722 -740 c39 -16 65 -60 65 -108 0 -30 -32 -65
-348 -380 l-347 -348 -45 0 c-44 0 -45 1 -227 182 -120 120 -186 193 -191 213
-21 75 35 141 112 131 35 -4 55 -20 173 -138 l133 -133 293 292 c160 160 299
293 307 296 25 9 39 8 75 -7z"/>
</g>
</svg>
